<svg xmlns="http://www.w3.org/2000/svg" viewBox="0 0 40 40" fill="none">
  <rect width="40" height="40" rx="8" fill="#145e38"/>
  <path d="M8 28 C8 28 10 20 14 18 C16 17 18 18 18 20 L18 24 C18 24 20 16 24 14 C26 13 28 14 28 16 L28 20" stroke="#7ecfa8" stroke-width="2.5" stroke-linecap="round" fill="none"/>
  <circle cx="12" cy="30" r="3" fill="#7ecfa8"/>
  <circle cx="26" cy="30" r="3" fill="#7ecfa8"/>
  <line x1="12" y1="30" x2="26" y2="30" stroke="#7ecfa8" stroke-width="2"/>
  <path d="M14 26 L14 20 C14 18 18 16 22 18 L26 22 L26 26" stroke="#2d9b68" stroke-width="2" stroke-linecap="round" fill="none"/>
  <rect x="16" y="8" width="8" height="3" rx="1" fill="#7ecfa8" opacity="0.7"/>
  <text x="20" y="10.5" text-anchor="middle" font-size="3" font-weight="bold" fill="#145e38">LC</text>
</svg>
